<svg width="360" height="216" viewBox="0 0 360 216" fill="none" xmlns="http://www.w3.org/2000/svg">
  <defs>
    <linearGradient id="bg" x1="0%" y1="0%" x2="100%" y2="100%">
      <stop offset="0%" style="stop-color:#1F2937"/>
      <stop offset="100%" style="stop-color:#111827"/>
    </linearGradient>
    <radialGradient id="glow" cx="50%" cy="50%" r="60%">
      <stop offset="0%" style="stop-color:#D4AF37;stop-opacity:0.3"/>
      <stop offset="70%" style="stop-color:#D4AF37;stop-opacity:0.1"/>
      <stop offset="100%" style="stop-color:#D4AF37;stop-opacity:0"/>
    </radialGradient>
  </defs>
  
  <!-- Background -->
  <rect width="360" height="216" fill="url(#bg)" rx="12"/>
  
  <!-- Glow effect -->
  <rect width="360" height="216" fill="url(#glow)" rx="12"/>
  
  <!-- Corporate Building -->
  <g transform="translate(180, 108)">
    <!-- Main building -->
    <rect x="-30" y="-40" width="60" height="80" fill="#D4AF37" opacity="0.9"/>
    
    <!-- Building sections -->
    <rect x="-25" y="-35" width="50" height="15" fill="#1F2937" opacity="0.8"/>
    <rect x="-25" y="-15" width="50" height="15" fill="#1F2937" opacity="0.8"/>
    <rect x="-25" y="5" width="50" height="15" fill="#1F2937" opacity="0.8"/>
    <rect x="-25" y="25" width="50" height="15" fill="#1F2937" opacity="0.8"/>
    
    <!-- Windows -->
    <g transform="translate(-20, -30)">
      <rect x="0" y="0" width="6" height="8" fill="#D4AF37" opacity="0.6"/>
      <rect x="8" y="0" width="6" height="8" fill="#D4AF37" opacity="0.6"/>
      <rect x="16" y="0" width="6" height="8" fill="#D4AF37" opacity="0.6"/>
      <rect x="24" y="0" width="6" height="8" fill="#D4AF37" opacity="0.6"/>
    </g>
    
    <g transform="translate(-20, -10)">
      <rect x="0" y="0" width="6" height="8" fill="#D4AF37" opacity="0.6"/>
      <rect x="8" y="0" width="6" height="8" fill="#D4AF37" opacity="0.6"/>
      <rect x="16" y="0" width="6" height="8" fill="#D4AF37" opacity="0.6"/>
      <rect x="24" y="0" width="6" height="8" fill="#D4AF37" opacity="0.6"/>
    </g>
    
    <!-- Roof -->
    <path d="M-35 -45 L0 -55 L35 -45" fill="#D4AF37" opacity="0.7"/>
    
    <!-- Documents -->
    <g transform="translate(-50, 20)">
      <rect x="0" y="0" width="12" height="16" fill="#D4AF37" opacity="0.7"/>
      <rect x="1" y="1" width="10" height="1" fill="#1F2937"/>
      <rect x="1" y="3" width="8" height="1" fill="#1F2937"/>
      <rect x="1" y="5" width="10" height="1" fill="#1F2937"/>
      <rect x="1" y="7" width="6" height="1" fill="#1F2937"/>
    </g>
    
    <g transform="translate(40, 20)">
      <rect x="0" y="0" width="12" height="16" fill="#D4AF37" opacity="0.7"/>
      <rect x="1" y="1" width="10" height="1" fill="#1F2937"/>
      <rect x="1" y="3" width="8" height="1" fill="#1F2937"/>
      <rect x="1" y="5" width="10" height="1" fill="#1F2937"/>
      <rect x="1" y="7" width="6" height="1" fill="#1F2937"/>
    </g>
    
    <!-- Chart/Graph -->
    <g transform="translate(0, -20)">
      <rect x="-15" y="0" width="30" height="20" fill="#1F2937" opacity="0.6"/>
      <rect x="-12" y="15" width="3" height="5" fill="#D4AF37"/>
      <rect x="-8" y="10" width="3" height="10" fill="#D4AF37"/>
      <rect x="-4" y="5" width="3" height="15" fill="#D4AF37"/>
      <rect x="0" y="8" width="3" height="12" fill="#D4AF37"/>
      <rect x="4" y="3" width="3" height="17" fill="#D4AF37"/>
    </g>
  </g>
</svg>
