<svg width="360" height="216" viewBox="0 0 360 216" fill="none" xmlns="http://www.w3.org/2000/svg">
  <defs>
    <linearGradient id="bg" x1="0%" y1="0%" x2="100%" y2="100%">
      <stop offset="0%" style="stop-color:#1F2937"/>
      <stop offset="100%" style="stop-color:#111827"/>
    </linearGradient>
    <radialGradient id="glow" cx="50%" cy="50%" r="60%">
      <stop offset="0%" style="stop-color:#D4AF37;stop-opacity:0.3"/>
      <stop offset="70%" style="stop-color:#D4AF37;stop-opacity:0.1"/>
      <stop offset="100%" style="stop-color:#D4AF37;stop-opacity:0"/>
    </radialGradient>
  </defs>
  
  <!-- Background -->
  <rect width="360" height="216" fill="url(#bg)" rx="12"/>
  
  <!-- Glow effect -->
  <rect width="360" height="216" fill="url(#glow)" rx="12"/>
  
  <!-- House -->
  <g transform="translate(180, 108)">
    <!-- Main house structure -->
    <path d="M-40 -20 L0 -50 L40 -20 L40 30 L-40 30 Z" fill="#D4AF37" opacity="0.9"/>
    
    <!-- Roof -->
    <path d="M-40 -20 L0 -50 L40 -20" fill="#D4AF37" opacity="0.7"/>
    
    <!-- Door -->
    <rect x="-8" y="10" width="16" height="20" fill="#1F2937"/>
    <circle cx="2" cy="20" r="1" fill="#D4AF37"/>
    
    <!-- Windows -->
    <rect x="-25" y="0" width="12" height="12" fill="#1F2937" opacity="0.8"/>
    <rect x="13" y="0" width="12" height="12" fill="#1F2937" opacity="0.8"/>
    
    <!-- Window frames -->
    <rect x="-25" y="0" width="12" height="12" stroke="#D4AF37" stroke-width="1" fill="none"/>
    <rect x="13" y="0" width="12" height="12" stroke="#D4AF37" stroke-width="1" fill="none"/>
    
    <!-- Chimney -->
    <rect x="25" y="-35" width="8" height="15" fill="#D4AF37" opacity="0.8"/>
    
    <!-- Legal documents -->
    <g transform="translate(-60, 20)">
      <rect x="0" y="0" width="10" height="14" fill="#D4AF37" opacity="0.7"/>
      <rect x="1" y="1" width="8" height="1" fill="#1F2937"/>
      <rect x="1" y="3" width="6" height="1" fill="#1F2937"/>
      <rect x="1" y="5" width="8" height="1" fill="#1F2937"/>
    </g>
    
    <g transform="translate(50, 20)">
      <rect x="0" y="0" width="10" height="14" fill="#D4AF37" opacity="0.7"/>
      <rect x="1" y="1" width="8" height="1" fill="#1F2937"/>
      <rect x="1" y="3" width="6" height="1" fill="#1F2937"/>
      <rect x="1" y="5" width="8" height="1" fill="#1F2937"/>
    </g>
  </g>
</svg>
